<svg xmlns="http://www.w3.org/2000/svg" viewBox="0 0 141.23 308.99"><defs><style>.cls-1{fill:#ff7bac;}</style></defs><title>资源 2</title><g id="图层_2" data-name="图层 2"><g id="图层_1-2" data-name="图层 1"><path class="cls-1" d="M129.3,209.83H113.59c-4.1,0-8.21.1-12.3-.09-2.75-.13-3.59.82-3.59,3.59.09,27.4.18,54.8-.09,82.19,0,3.46-1.89,7-3.46,10.3-1.07,2.23-8.26,3.83-10.68,2.92-6.65-2.47-9.58-6.79-9.58-14q0-40.65,0-81.29c0-3.34-2.78-5.11-5.69-3.46-.68.38-1.05,1.83-1.06,2.79-.09,7.2,0,14.4,0,21.6,0,20.2.19,40.4-.16,60.59-.06,3.66-2,7.43-3.63,10.89-1,2.16-8.39,3.74-10.69,2.75-2.06-.89-5-1.45-5.87-3.07-1.82-3.3-3.5-7.21-3.54-10.89C42.9,267.79,43,240.89,43,214c0-4.26,0-4.23-4.38-4.22q-11.7,0-23.4,0c-1,0-1.94-.12-3.48-.22.81-3.22,1.46-6.09,2.27-8.91q6.41-22.3,12.89-44.57,7.58-26,15.23-52c.76-2.58,1.49-5.18,2-7.82.18-.9-.11-2.66-.54-2.78-1.47-.41-3.21-.69-3.86,1.54-1.17,4-2.47,8-3.67,12-4.25,14.25-8.53,28.48-12.7,42.76-1.6,5.47-3,10.93-7.15,15.24-2.69,2.79-8.38,3.56-11.41,1.15C.19,162.47-1.13,156,1,149.23c5.2-16.77,10.21-33.6,15.34-50.38,2-6.68,4-13.39,6.37-20a32.58,32.58,0,0,1,29.79-21.4c11.89-.24,23.8-.28,35.7,0,14.71.34,27.56,11,31.75,25.34,5,16.94,10.3,33.78,15.47,50.66,1.81,5.92,4.17,11.74,5.21,17.79.87,5.08,1.76,10.69-3.88,14.56a9.47,9.47,0,0,1-12.26-1.23c-5.21-5.81-6.21-13.28-8.35-20.26-5-16.31-9.77-32.69-14.6-49.05-.65-2.21-2.36-2.31-4.07-2-2.32.45-1.21,2.24-.89,3.37,3.1,10.95,6.31,21.87,9.48,32.79q5,17.25,10,34.49,5.62,19.25,11.28,38.49C128,204.72,128.54,207,129.3,209.83Z"/><path class="cls-1" d="M70.63,0c14.62,1.17,25.06,10.44,25,25-.08,15.36-10.23,25.09-25,25.13s-25-10.12-25-25.12C45.55,10.65,55.87,1.2,70.63,0Z"/></g></g></svg>