<?xml version="1.0" encoding="utf-8"?>
<!-- Generator: Adobe Illustrator 21.1.0, SVG Export Plug-In . SVG Version: 6.00 Build 0)  -->
<svg version="1.1" id="图层_1" xmlns="http://www.w3.org/2000/svg" xmlns:xlink="http://www.w3.org/1999/xlink" x="0px" y="0px"
	 viewBox="0 0 22 33.9" style="enable-background:new 0 0 22 33.9;" xml:space="preserve">
<style type="text/css">
	.st0{fill:#00A7AA;}
</style>
<title>资源 1</title>
<g id="图层_2">
	<g id="图层_1-2">
		<path class="st0" d="M4.7,0c0.1,0.3,0.1,0.6,0.2,0.8c0.2,0.5,0.5,1.1,0.8,1.5C6.4,3.2,7,4.2,7.5,5.1c0.4,0.6,0.8,1.3,1.1,2
			C9,7.7,9.2,8.4,9.3,9.1c0.3,1.8-0.4,3.6-2,4.5c-0.9,0.6-1.9,0.9-3,0.8c-0.7,0-1.3-0.2-1.9-0.5c-1.3-0.7-2.2-1.9-2.4-3.4
			C0,9.7,0.1,8.8,0.3,8C0.6,7.2,1,6.4,1.5,5.7c0.6-1,1.2-2,1.9-2.9c0.4-0.7,0.8-1.3,1.1-2.1C4.6,0.5,4.7,0.3,4.7,0L4.7,0z M4.1,13.3
			h0.2c0.2,0,0.4-0.2,0.4-0.4c0-0.1,0-0.1,0-0.1c-0.1-0.2-0.2-0.3-0.4-0.3c-1.3-0.1-2.3-1.1-2.3-2.4c0-0.2-0.2-0.4-0.4-0.4
			c0,0,0,0-0.1,0c-0.2,0-0.4,0.2-0.4,0.4l0,0c0,0.1,0,0.2,0,0.3C1.3,12.1,2.5,13.2,4.1,13.3z"/>
	</g>
</g>
</svg>
