<?xml version="1.0" encoding="utf-8"?>
<!-- Generator: Adobe Illustrator 21.1.0, SVG Export Plug-In . SVG Version: 6.00 Build 0)  -->
<svg version="1.1" id="图层_1" xmlns="http://www.w3.org/2000/svg" xmlns:xlink="http://www.w3.org/1999/xlink" x="0px" y="0px"
	 viewBox="0 0 22 33.9" style="enable-background:new 0 0 22 33.9;" xml:space="preserve">
<style type="text/css">
	.st0{fill:#00A7AA;}
</style>
<title>资源 1</title>
<g id="图层_2">
	<g id="图层_1-2">
		<path class="st0" d="M8.4,0c0.1,0.5,0.2,1,0.4,1.4c0.4,0.9,0.9,1.9,1.5,2.7c1,1.6,2.1,3.3,3.1,4.9c0.7,1.1,1.4,2.3,2,3.6
			c0.6,1.2,1,2.4,1.2,3.7c0.6,3.2-0.8,6.4-3.5,8.1c-1.6,1.1-3.4,1.6-5.3,1.4c-1.2,0-2.4-0.3-3.4-0.9c-2.3-1.2-4-3.4-4.3-6
			c-0.2-1.6,0-3.2,0.5-4.6c0.5-1.5,1.2-2.9,2.1-4.2C3.8,8.4,4.9,6.6,6,4.9c0.8-1.2,1.4-2.4,2-3.7c0.1-0.3,0.3-0.7,0.4-1.1L8.4,0z
			 M7.3,23.7h0.3c0.4,0,0.7-0.4,0.7-0.7c0-0.1,0-0.1,0-0.2c-0.1-0.3-0.4-0.6-0.8-0.5c-2.3-0.1-4.1-1.9-4.1-4.2
			c0-0.4-0.3-0.7-0.7-0.7c0,0,0,0-0.1,0c-0.4,0-0.7,0.3-0.7,0.7c0,0,0,0,0,0c0,0.2,0,0.4,0,0.6C2.3,21.5,4.5,23.6,7.3,23.7z"/>
	</g>
</g>
</svg>
