<svg xmlns="http://www.w3.org/2000/svg" viewBox="0 0 22.01 33.89"><defs><style>.cls-1{fill:#00a7aa;}</style></defs><title>资源 1</title><g id="图层_2" data-name="图层 2"><g id="图层_1-2" data-name="图层 1"><path class="cls-1" d="M11.06,0a6.38,6.38,0,0,0,.58,1.88,25,25,0,0,0,2,3.57c1.35,2.14,2.74,4.27,4.1,6.41a42.19,42.19,0,0,1,2.65,4.67,16.39,16.39,0,0,1,1.53,4.8A10.49,10.49,0,0,1,17.28,32a10.79,10.79,0,0,1-6.93,1.85,10.33,10.33,0,0,1-4.51-1.18,10.58,10.58,0,0,1-5.69-7.9,12.15,12.15,0,0,1,.68-6.07,26.63,26.63,0,0,1,2.74-5.46Q5.74,9.84,7.92,6.42a31.05,31.05,0,0,0,2.6-4.89c.18-.45.33-.92.49-1.38ZM9.64,31.1H10a.94.94,0,0,0,.86-1.2,1,1,0,0,0-1-.71,5.57,5.57,0,0,1-5.42-5.56.93.93,0,0,0-1-.93.94.94,0,0,0-.91,1,8.23,8.23,0,0,0,.05.85A7.45,7.45,0,0,0,9.64,31.1Z"/></g></g></svg>